<svg aria-hidden="true" style="position: absolute; width: 0; height: 0; overflow: hidden;" version="1.1" xmlns="http://www.w3.org/2000/svg" xmlns:xlink="http://www.w3.org/1999/xlink">
<defs>
<symbol id="icon-arrov" viewBox="0 0 53 32">
<path d="M26.667 32c-0.956 0-1.912-0.384-2.64-1.151l-22.932-24.138c-1.459-1.535-1.459-4.025 0-5.56s3.823-1.535 5.282 0l20.291 21.359 20.291-21.358c1.459-1.535 3.823-1.535 5.281 0 1.459 1.535 1.459 4.024 0 5.56l-22.932 24.138c-0.729 0.767-1.685 1.15-2.64 1.15z"></path>
</symbol>
<symbol id="icon-close" viewBox="0 0 32 32">
<path stroke-linejoin="round" stroke-linecap="round" stroke-miterlimit="4" stroke-width="2.6667" d="M24 8l-16 16"></path>
<path stroke-linejoin="round" stroke-linecap="round" stroke-miterlimit="4" stroke-width="2.6667" d="M8 8l16 16"></path>
</symbol>
<symbol id="icon-menu" viewBox="0 0 32 32">
<path stroke-linejoin="round" stroke-linecap="round" stroke-miterlimit="4" stroke-width="2.5" d="M4 16h24M4 8h24M4 24h24"></path>
</symbol>
</defs>
</svg>
